<?xml version="1.0" encoding="UTF-8"?>
<svg version="1.1" xmlns="http://www.w3.org/2000/svg" width="48" height="48">
<path d="M0 0 C15.84 0 31.68 0 48 0 C48 15.84 48 31.68 48 48 C32.16 48 16.32 48 0 48 C0 32.16 0 16.32 0 0 Z " fill="#010201" transform="translate(0,0)"/>
<path d="M0 0 C11.22 0 22.44 0 34 0 C34 9.24 34 18.48 34 28 C22.78 28 11.56 28 0 28 C0 18.76 0 9.52 0 0 Z " fill="#9CEA9C" transform="translate(7,10)"/>
<path d="M0 0 C0 0.99 0 1.98 0 3 C0.99 3 1.98 3 3 3 C3 5.31 3 7.62 3 10 C2.01 9.67 1.02 9.34 0 9 C0 9.99 0 10.98 0 12 C-3.375 12.125 -3.375 12.125 -7 12 C-9 10 -9 10 -9.3125 6.0625 C-9.23330121 3.50018618 -9.11578846 2.21227884 -7.875 -0.0625 C-5.06457284 -1.46771358 -2.96791942 -0.72549141 0 0 Z " fill="#A3F5A3" transform="translate(38,19)"/>
<path d="M0 0 C0.66 0.33 1.32 0.66 2 1 C2 2.32 2 3.64 2 5 C1.34 5 0.68 5 0 5 C0 4.01 0 3.02 0 2 C-2.91652174 1.83318891 -2.91652174 1.83318891 -6 2 C-8.1702792 3.7587364 -8.1702792 3.7587364 -8.23046875 5.91015625 C-8.53754032 9.76685951 -8.53754032 9.76685951 -7 13 C-4.67182036 13.36760731 -2.3381615 13.70241581 0 14 C0 13.01 0 12.02 0 11 C0.66 11 1.32 11 2 11 C1.67 12.32 1.34 13.64 1 15 C-2.99582254 15.94019354 -5.18969194 16.39653373 -8.9375 14.5625 C-11.43214585 11.46309152 -11.63315276 9.78424695 -11.34375 5.90625 C-10.10335558 -0.97230089 -5.9740015 -0.4741271 0 0 Z " fill="#263926" transform="translate(38,17)"/>
<path d="M0 0 C3.96 0 7.92 0 12 0 C12 1.65 12 3.3 12 5 C11.34 5 10.68 5 10 5 C10 4.01 10 3.02 10 2 C9.01 2 8.02 2 7 2 C7 5.96 7 9.92 7 14 C7.66 14.33 8.32 14.66 9 15 C6.69 15 4.38 15 2 15 C2.99 14.67 3.98 14.34 5 14 C5 10.04 5 6.08 5 2 C3.68 2 2.36 2 1 2 C0.67 2.99 0.34 3.98 0 5 C0 3.35 0 1.7 0 0 Z " fill="#213221" transform="translate(13,17)"/>
</svg>
