<svg width="394.3" height="100" viewBox="0 0 394.3 100" xmlns="http://www.w3.org/2000/svg"><g id="svgGroup" stroke-linecap="round" fill-rule="nonzero" font-size="9pt" stroke="#000000" stroke-width="0.50mm" fill="#000000" style="stroke:#000000;stroke-width:0.50mm;fill:#000000"><path d="M 82.7 67.3 A 30.306 30.306 0 0 1 82.658 67.368 Q 79.068 73.117 73.65 76.05 A 21.918 21.918 0 0 1 72.974 76.401 Q 67.92 78.913 61.261 78.997 A 36.672 36.672 0 0 1 60.8 79 A 26.787 26.787 0 0 1 60.722 79 Q 54.37 78.981 49.45 75.95 A 21.437 21.437 0 0 1 49.428 75.937 Q 44.494 72.888 41.75 67.5 A 22.885 22.885 0 0 1 41.462 66.914 Q 39.081 61.89 39.003 55.442 A 36.253 36.253 0 0 1 39 55 A 35.962 35.962 0 0 1 39.003 54.556 Q 39.081 48.247 41.381 43.341 A 22.332 22.332 0 0 1 41.85 42.4 A 23.533 23.533 0 0 1 41.946 42.22 Q 44.611 37.274 49.235 34.372 A 21.736 21.736 0 0 1 49.85 34 Q 54.839 31.094 61.377 31.003 A 30.481 30.481 0 0 1 61.8 31 A 32.039 32.039 0 0 1 62.203 31.003 Q 68.165 31.078 72.602 33.381 A 18.493 18.493 0 0 1 73.45 33.85 A 19.475 19.475 0 0 1 73.492 33.875 Q 78.311 36.723 80.9 42 A 21.763 21.763 0 0 1 81.019 42.247 Q 83.5 47.47 83.5 54.6 A 19.988 19.988 0 0 1 83.498 54.858 Q 83.491 55.437 83.45 56.05 A 79.862 79.862 0 0 0 83.445 56.126 Q 83.403 56.765 83.4 56.973 A 2.047 2.047 0 0 0 83.4 57 L 44.1 57 L 44.1 50.2 L 77.1 50.2 L 73.9 54.8 A 2.625 2.625 0 0 0 73.944 54.723 Q 74.203 54.256 74.463 53.379 A 15.079 15.079 0 0 0 74.5 53.25 Q 74.774 52.29 74.798 51.623 A 3.483 3.483 0 0 0 74.8 51.5 A 20.051 20.051 0 0 0 74.797 51.173 Q 74.734 47.28 73.15 44.4 A 13.409 13.409 0 0 0 72.922 44.001 Q 71.304 41.285 68.6 39.7 A 11.463 11.463 0 0 0 68.318 39.54 Q 65.65 38.076 62.163 38.004 A 17.575 17.575 0 0 0 61.8 38 A 21.347 21.347 0 0 0 61.456 38.003 Q 57.078 38.073 53.95 39.95 Q 50.878 41.793 49.146 45.156 A 15.424 15.424 0 0 0 48.95 45.55 A 15.135 15.135 0 0 0 48.759 45.965 Q 47.246 49.38 47.108 54.17 A 32.963 32.963 0 0 0 47.1 54.5 A 34.11 34.11 0 0 0 47.1 54.639 Q 47.121 59.655 48.619 63.28 A 15.962 15.962 0 0 0 48.8 63.7 Q 50.367 67.203 53.294 69.177 A 12.42 12.42 0 0 0 53.8 69.5 A 12.326 12.326 0 0 0 54.495 69.891 Q 57.477 71.444 61.508 71.498 A 21.784 21.784 0 0 0 61.8 71.5 A 21.482 21.482 0 0 0 61.866 71.5 Q 65.609 71.488 68.652 70.173 A 14.775 14.775 0 0 0 70.1 69.45 A 14.28 14.28 0 0 0 70.628 69.134 Q 73.776 67.157 76.043 63.46 A 23.082 23.082 0 0 0 76.2 63.2 L 82.7 67.3 Z M 278.8 25.9 Q 276.4 22.8 273 20.45 A 26.512 26.512 0 0 0 272.306 19.986 Q 269.453 18.144 266.094 17.01 A 30.521 30.521 0 0 0 265.45 16.8 A 25.03 25.03 0 0 0 265.43 16.794 Q 261.515 15.571 256.844 15.504 A 37.93 37.93 0 0 0 256.3 15.5 Q 249.777 15.5 244.148 18.628 A 26.45 26.45 0 0 0 243.5 19 Q 237.877 22.336 234.297 28.079 A 30.778 30.778 0 0 0 233.95 28.65 A 24.432 24.432 0 0 0 233.139 30.13 Q 230.401 35.568 230.304 42.49 A 36.417 36.417 0 0 0 230.3 43 A 35.593 35.593 0 0 0 230.303 43.462 Q 230.382 49.518 232.528 54.497 A 25.119 25.119 0 0 0 233.95 57.3 A 31.014 31.014 0 0 0 234.217 57.745 Q 237.813 63.626 243.5 67 Q 249.4 70.5 256.3 70.5 A 38.034 38.034 0 0 0 256.737 70.497 Q 261.172 70.447 264.928 69.357 A 25.544 25.544 0 0 0 265.45 69.2 Q 268.757 68.164 271.588 66.461 A 26.566 26.566 0 0 0 273 65.55 A 28.482 28.482 0 0 0 273.559 65.154 Q 275.926 63.432 277.784 61.328 A 24.677 24.677 0 0 0 278.8 60.1 L 278.8 71.3 A 33.978 33.978 0 0 1 278.629 71.451 Q 274.299 75.237 269.2 77.1 Q 264.163 78.941 256.779 78.998 A 61.462 61.462 0 0 1 256.3 79 A 40.178 40.178 0 0 1 256.188 79 Q 248.951 78.98 242.65 76.35 Q 236.3 73.7 231.5 68.85 Q 226.7 64 224 57.4 A 34.551 34.551 0 0 1 223.386 55.784 Q 221.3 49.856 221.3 43 Q 221.3 36.175 223.367 30.269 A 34.556 34.556 0 0 1 224 28.6 Q 226.363 22.825 230.333 18.39 A 34.01 34.01 0 0 1 231.5 17.15 Q 236.3 12.3 242.65 9.65 Q 248.702 7.124 255.618 7.006 A 39.857 39.857 0 0 1 256.3 7 A 61.682 61.682 0 0 1 256.668 7.001 Q 263.886 7.044 268.873 8.783 A 23.533 23.533 0 0 1 269.2 8.9 A 28.443 28.443 0 0 1 269.959 9.19 Q 274.723 11.086 278.8 14.7 L 278.8 25.9 Z M 349.8 100 L 340.8 100 L 353.4 71.5 L 335.8 32 L 345.3 32 L 359.9 68 L 356.6 67.6 L 370.8 32 L 379.8 32 L 349.8 100 Z M 0 8 L 44.5 8 L 44.5 16 L 26.5 16 L 26.5 78 L 18 78 L 18 16 L 0 16 L 0 8 Z M 129.8 46.9 A 8.832 8.832 0 0 0 129.579 46.431 Q 128.553 44.404 126.4 42.7 Q 124.15 40.919 121.153 39.797 A 23.642 23.642 0 0 0 120.75 39.65 A 19.338 19.338 0 0 0 119.727 39.32 Q 116.924 38.5 113.8 38.5 A 18.985 18.985 0 0 0 113.349 38.505 Q 109.121 38.606 105.75 40.6 A 15.482 15.482 0 0 0 105.475 40.767 Q 102.335 42.714 100.408 45.995 A 17.067 17.067 0 0 0 100.15 46.45 A 15.855 15.855 0 0 0 99.993 46.745 Q 98.192 50.21 98.105 54.552 A 22.138 22.138 0 0 0 98.1 55 Q 98.1 59.8 100.15 63.5 Q 102.072 66.969 105.312 69.075 A 16.212 16.212 0 0 0 105.75 69.35 A 14.684 14.684 0 0 0 106.208 69.616 Q 109.419 71.406 113.38 71.495 A 18.563 18.563 0 0 0 113.8 71.5 Q 116.835 71.5 119.568 70.726 A 19.355 19.355 0 0 0 120.75 70.35 A 22.807 22.807 0 0 0 120.884 70.302 Q 123.658 69.301 125.806 67.711 A 16.697 16.697 0 0 0 126.4 67.25 A 17.407 17.407 0 0 0 126.612 67.075 Q 128.662 65.355 129.635 63.442 A 8.629 8.629 0 0 0 129.8 63.1 L 129.8 73.1 Q 127.4 75.9 122.95 77.45 Q 118.987 78.83 114.825 78.981 A 28.271 28.271 0 0 1 113.8 79 A 28.843 28.843 0 0 1 113.602 78.999 Q 107.02 78.954 101.7 75.9 Q 96.3 72.8 93.15 67.35 A 22.899 22.899 0 0 1 92.952 67 Q 90 61.68 90 55 A 30.775 30.775 0 0 1 90.003 54.554 Q 90.076 49.551 91.781 45.377 A 22.081 22.081 0 0 1 93.15 42.6 A 25.019 25.019 0 0 1 93.372 42.226 Q 96.299 37.404 101.075 34.471 A 24.62 24.62 0 0 1 101.7 34.1 A 23.068 23.068 0 0 1 102.635 33.591 Q 107.674 31 113.8 31 Q 118.059 31 122.113 32.273 A 28.504 28.504 0 0 1 122.95 32.55 A 23.762 23.762 0 0 1 123.071 32.593 Q 127.092 34.017 129.417 36.475 A 11.629 11.629 0 0 1 129.8 36.9 L 129.8 46.9 Z M 150.3 78 L 142.3 78 L 142.3 0 L 150.3 0 L 150.3 78 Z M 171.8 50 A 26.325 26.325 0 0 0 171.8 49.89 Q 171.778 44.626 169.647 41.773 A 7.957 7.957 0 0 0 169.35 41.4 A 7.593 7.593 0 0 0 169.031 41.045 Q 166.672 38.585 162.304 38.503 A 16.176 16.176 0 0 0 162 38.5 Q 159.102 38.5 156.786 39.529 A 10.802 10.802 0 0 0 155.85 40 A 11.789 11.789 0 0 0 155.507 40.202 Q 153.326 41.536 152.008 43.661 A 11.02 11.02 0 0 0 151.75 44.1 Q 150.391 46.537 150.306 49.59 A 14.729 14.729 0 0 0 150.3 50 L 147.7 50 Q 147.7 45.016 149.425 41.058 A 18.57 18.57 0 0 1 149.8 40.25 A 21.291 21.291 0 0 1 149.808 40.235 Q 151.907 35.996 155.55 33.5 Q 159.029 31.117 163.553 31.005 A 18.128 18.128 0 0 1 164 31 Q 168.8 31 172.35 33 A 13.082 13.082 0 0 1 172.543 33.111 Q 175.953 35.109 177.85 39 A 15.317 15.317 0 0 1 178.045 39.417 Q 179.742 43.18 179.798 48.627 A 36.349 36.349 0 0 1 179.8 49 L 179.8 78 L 171.8 78 L 171.8 50 Z M 327.8 16 L 327.8 78 L 319.8 78 L 319.8 16 L 327.8 16 Z M 335.3 32 L 312.3 32 L 312.3 39.5 L 335.3 39.5 L 335.3 32 Z M 302.8 32 L 302.8 78 L 294.8 78 L 294.8 32 L 302.8 32 Z M 293.3 13 Q 293.3 10.844 294.75 9.303 A 6.224 6.224 0 0 1 294.95 9.1 A 6.742 6.742 0 0 1 295.115 8.945 Q 296.709 7.5 298.8 7.5 A 6.583 6.583 0 0 1 298.839 7.5 Q 301.114 7.514 302.7 9.1 A 6.244 6.244 0 0 1 302.762 9.162 Q 304.3 10.745 304.3 13 Q 304.3 15.063 302.893 16.642 A 6.704 6.704 0 0 1 302.7 16.85 A 6.272 6.272 0 0 1 302.555 16.994 Q 300.997 18.5 298.8 18.5 Q 296.729 18.5 295.145 17.038 A 6.802 6.802 0 0 1 294.95 16.85 Q 293.416 15.316 293.308 13.307 A 5.72 5.72 0 0 1 293.3 13 Z M 383.3 74 Q 383.3 71.844 384.75 70.303 A 6.224 6.224 0 0 1 384.95 70.1 A 6.742 6.742 0 0 1 385.115 69.945 Q 386.709 68.5 388.8 68.5 A 6.583 6.583 0 0 1 388.839 68.5 Q 391.114 68.514 392.7 70.1 A 6.244 6.244 0 0 1 392.762 70.162 Q 394.3 71.745 394.3 74 Q 394.3 76.063 392.893 77.642 A 6.704 6.704 0 0 1 392.7 77.85 A 6.272 6.272 0 0 1 392.555 77.994 Q 390.997 79.5 388.8 79.5 Q 386.729 79.5 385.145 78.038 A 6.802 6.802 0 0 1 384.95 77.85 Q 383.416 76.316 383.308 74.307 A 5.72 5.72 0 0 1 383.3 74 Z" vector-effect="non-scaling-stroke"/></g></svg>