<svg width="382.4" height="100" viewBox="0 0 382.4 100" xmlns="http://www.w3.org/2000/svg"><g id="svgGroup" stroke-linecap="round" fill-rule="nonzero" font-size="9pt" stroke="#000000" stroke-width="0.45mm" fill="#fffefe" style="stroke:#000000;stroke-width:0.45mm;fill:#fffefe"><path d="M 80 67.3 A 36.626 36.626 0 0 1 79.782 67.631 Q 75.957 73.379 70.95 76.15 A 20.765 20.765 0 0 1 70.65 76.313 Q 65.6 79 58.9 79 Q 52.7 79 47.9 75.9 A 21.078 21.078 0 0 1 47.585 75.693 Q 43.231 72.769 40.612 67.856 A 25.457 25.457 0 0 1 40.35 67.35 A 23.663 23.663 0 0 1 40.187 67.021 Q 37.683 61.861 37.603 55.336 A 35.269 35.269 0 0 1 37.6 54.9 Q 37.6 47.9 40.4 42.5 A 23.365 23.365 0 0 1 40.409 42.483 Q 43.033 37.432 47.584 34.44 A 21.55 21.55 0 0 1 48.2 34.05 Q 53.044 31.095 59.295 31.003 A 27.41 27.41 0 0 1 59.7 31 A 27.057 27.057 0 0 1 60.096 31.003 Q 64.685 31.07 68.438 32.7 A 18.803 18.803 0 0 1 70.75 33.9 A 20.528 20.528 0 0 1 70.793 33.926 Q 75.29 36.687 77.897 41.472 A 22.876 22.876 0 0 1 78.15 41.95 A 21.916 21.916 0 0 1 78.307 42.261 Q 80.72 47.139 80.797 53.383 A 33.514 33.514 0 0 1 80.8 53.8 Q 80.8 54.325 80.762 54.927 A 22.413 22.413 0 0 1 80.75 55.1 Q 80.7 55.8 80.6 56.3 L 40.9 56.3 L 40.9 51.8 L 76.7 51.8 L 74.5 54.9 Q 74.688 54.431 74.919 53.655 A 29.764 29.764 0 0 0 74.95 53.55 Q 75.147 52.879 75.189 52.24 A 5.232 5.232 0 0 0 75.2 51.9 A 21.209 21.209 0 0 0 75.195 51.426 Q 75.096 47.012 73.15 43.5 A 17.428 17.428 0 0 0 73.065 43.348 Q 71.19 40.043 68.138 38.038 A 15.554 15.554 0 0 0 67.6 37.7 Q 64.291 35.715 60.179 35.606 A 18.136 18.136 0 0 0 59.7 35.6 A 21.825 21.825 0 0 0 59.337 35.603 Q 55.492 35.667 52.429 37.092 A 14.458 14.458 0 0 0 50.85 37.95 Q 47.276 40.19 45.201 44.156 A 19.091 19.091 0 0 0 45 44.55 A 17.553 17.553 0 0 0 44.901 44.754 Q 42.964 48.804 42.902 54.239 A 31.64 31.64 0 0 0 42.9 54.6 Q 42.9 60.131 44.702 64.344 A 19.102 19.102 0 0 0 44.95 64.9 A 19.487 19.487 0 0 0 45.12 65.255 Q 47.153 69.398 50.75 71.7 Q 54.5 74.1 59.5 74.1 Q 64.055 74.1 67.612 72.401 A 15.721 15.721 0 0 0 68.75 71.8 A 15.707 15.707 0 0 0 68.969 71.67 Q 72.664 69.438 75.605 64.904 A 31.449 31.449 0 0 0 75.8 64.6 L 80 67.3 Z M 274.5 22.2 A 27.023 27.023 0 0 0 273.922 21.555 Q 271.822 19.283 269.234 17.53 A 27.999 27.999 0 0 0 268.5 17.05 Q 265.366 15.068 261.636 13.978 A 29.817 29.817 0 0 0 261 13.8 A 28.742 28.742 0 0 0 260.409 13.648 Q 256.549 12.7 252 12.7 A 32.304 32.304 0 0 0 251.782 12.701 Q 244.504 12.75 238.506 16.084 A 27.17 27.17 0 0 0 237.7 16.55 A 28.603 28.603 0 0 0 236.918 17.038 Q 231.26 20.695 227.74 26.778 A 32.472 32.472 0 0 0 227.5 27.2 Q 223.7 34 223.7 43 A 41.515 41.515 0 0 0 223.701 43.209 Q 223.745 51.98 227.5 58.7 A 32.843 32.843 0 0 0 227.603 58.883 Q 231.147 65.13 236.91 68.901 A 29.089 29.089 0 0 0 237.7 69.4 Q 244.1 73.3 252 73.3 Q 257 73.3 261.1 72.2 A 28.563 28.563 0 0 0 261.318 72.141 Q 264.524 71.253 267.267 69.686 A 24.213 24.213 0 0 0 268.55 68.9 A 29.58 29.58 0 0 0 269.058 68.559 Q 272.099 66.471 274.5 63.7 L 274.5 71.1 Q 270.1 75 264.9 76.95 Q 259.863 78.839 252.479 78.898 A 59.888 59.888 0 0 1 252 78.9 Q 246.24 78.9 241.133 77.25 A 32.353 32.353 0 0 1 238.45 76.25 A 35.103 35.103 0 0 1 238.341 76.203 Q 232.647 73.766 228.329 69.537 A 32.775 32.775 0 0 1 227.6 68.8 A 32.84 32.84 0 0 1 225.805 66.766 Q 222.666 62.895 220.648 58.015 A 39.561 39.561 0 0 1 220.4 57.4 A 35.247 35.247 0 0 1 220.228 56.955 Q 217.918 50.849 217.806 43.729 A 46.301 46.301 0 0 1 217.8 43 A 46.407 46.407 0 0 1 217.804 42.427 Q 217.887 35.684 219.935 29.848 A 35.339 35.339 0 0 1 220.4 28.6 Q 223 22 227.6 17.2 A 32.914 32.914 0 0 1 227.864 16.928 Q 232.378 12.324 238.45 9.75 A 32.338 32.338 0 0 1 240.738 8.88 Q 245.714 7.202 251.318 7.106 A 39.818 39.818 0 0 1 252 7.1 A 60.488 60.488 0 0 1 252.154 7.1 Q 259.512 7.119 264.573 8.93 A 23.138 23.138 0 0 1 264.9 9.05 A 29.261 29.261 0 0 1 267.27 10.06 Q 270.808 11.755 273.947 14.42 A 34.368 34.368 0 0 1 274.5 14.9 L 274.5 22.2 Z M 340.1 100 L 334.3 100 L 346.1 73.3 L 327.5 32 L 333.7 32 L 350.4 71.2 L 348 71 L 364.3 32 L 370.1 32 L 340.1 100 Z M 0 8 L 42.3 8 L 42.3 13.2 L 23.9 13.2 L 23.9 78 L 18.4 78 L 18.4 13.2 L 0 13.2 L 0 8 Z M 127.5 43.4 A 7.311 7.311 0 0 0 127.365 43.155 Q 126.348 41.39 124.15 39.8 Q 121.8 38.1 118.6 37 A 19.1 19.1 0 0 0 118.231 36.877 Q 115.187 35.9 111.7 35.9 A 21.757 21.757 0 0 0 111.2 35.906 Q 106.782 36.007 103.137 37.912 A 17.417 17.417 0 0 0 102.35 38.35 Q 98.451 40.652 96.097 44.586 A 19.69 19.69 0 0 0 95.8 45.1 A 17.802 17.802 0 0 0 95.09 46.517 Q 93.463 50.16 93.402 54.651 A 25.854 25.854 0 0 0 93.4 55 A 25.819 25.819 0 0 0 93.403 55.389 Q 93.471 59.882 95.109 63.525 A 17.799 17.799 0 0 0 95.8 64.9 Q 98.05 68.931 101.838 71.337 A 18.512 18.512 0 0 0 102.35 71.65 A 17.421 17.421 0 0 0 103.112 72.075 Q 106.773 73.996 111.215 74.095 A 21.767 21.767 0 0 0 111.7 74.1 A 24.765 24.765 0 0 0 111.88 74.099 Q 115.017 74.077 117.792 73.258 A 19.177 19.177 0 0 0 118.6 73 Q 121.506 72.001 123.711 70.466 A 16.925 16.925 0 0 0 124.15 70.15 Q 126.353 68.509 127.37 66.825 A 7.243 7.243 0 0 0 127.5 66.6 L 127.5 73.1 A 9.725 9.725 0 0 1 127.276 73.357 Q 125.244 75.611 121.32 77.193 A 27.392 27.392 0 0 1 121.05 77.3 A 24.016 24.016 0 0 1 119.235 77.927 Q 115.673 79 111.7 79 A 28.84 28.84 0 0 1 111.506 78.999 Q 105.549 78.959 100.706 76.454 A 22.134 22.134 0 0 1 99.7 75.9 A 24.001 24.001 0 0 1 99.114 75.546 Q 94.224 72.495 91.25 67.35 A 22.899 22.899 0 0 1 91.052 67 Q 88.1 61.68 88.1 55 A 30.775 30.775 0 0 1 88.103 54.554 Q 88.176 49.551 89.881 45.377 A 22.081 22.081 0 0 1 91.25 42.6 A 25.739 25.739 0 0 1 91.457 42.252 Q 94.371 37.432 99.046 34.496 A 24.305 24.305 0 0 1 99.7 34.1 A 22.184 22.184 0 0 1 100.34 33.74 Q 105.401 31 111.7 31 A 28.452 28.452 0 0 1 111.916 31.001 Q 116.794 31.038 121.05 32.75 A 29.957 29.957 0 0 1 121.303 32.853 Q 125.261 34.487 127.298 36.676 A 9.803 9.803 0 0 1 127.5 36.9 L 127.5 43.4 Z M 146 78 L 140.8 78 L 140.8 0 L 146 0 L 146 78 Z M 170.3 48.4 Q 170.3 42.869 168.059 39.623 A 9.763 9.763 0 0 0 167.75 39.2 Q 165.27 35.99 159.809 35.902 A 19.248 19.248 0 0 0 159.5 35.9 A 15.748 15.748 0 0 0 159.102 35.905 Q 155.865 35.987 153.227 37.407 A 12.384 12.384 0 0 0 152.55 37.8 A 14.25 14.25 0 0 0 152.117 38.081 Q 149.559 39.806 147.974 42.505 A 14.886 14.886 0 0 0 147.75 42.9 A 14.139 14.139 0 0 0 147.53 43.318 Q 146 46.353 146 50 L 144.2 50 A 27.81 27.81 0 0 1 144.203 49.621 Q 144.266 44.95 145.905 41.195 A 18.391 18.391 0 0 1 146.35 40.25 A 20.57 20.57 0 0 1 146.595 39.781 Q 148.497 36.25 151.52 33.984 A 17.059 17.059 0 0 1 152.2 33.5 Q 155.727 31.117 160.252 31.005 A 18.141 18.141 0 0 1 160.7 31 A 23.287 23.287 0 0 1 160.998 31.002 Q 165.232 31.056 168.275 32.657 A 12.157 12.157 0 0 1 168.8 32.95 Q 172.1 34.9 173.8 38.65 Q 175.5 42.4 175.5 47.8 L 175.5 78 L 170.3 78 L 170.3 48.4 Z M 318.7 16 L 318.7 78 L 313.5 78 L 313.5 16 L 318.7 16 Z M 326.2 32 L 306 32 L 306 36.9 L 326.2 36.9 L 326.2 32 Z M 296.1 32 L 296.1 78 L 290.9 78 L 290.9 32 L 296.1 32 Z M 375 75.6 Q 375 74.125 375.935 73.075 A 4.148 4.148 0 0 1 376.1 72.9 Q 377.2 71.8 378.7 71.8 A 4.52 4.52 0 0 1 378.883 71.804 Q 380.238 71.859 381.183 72.735 A 3.875 3.875 0 0 1 381.35 72.9 A 4.154 4.154 0 0 1 381.394 72.947 Q 382.324 73.951 382.394 75.365 A 4.714 4.714 0 0 1 382.4 75.6 Q 382.4 77.1 381.35 78.2 Q 380.3 79.3 378.7 79.3 A 3.983 3.983 0 0 1 378.493 79.295 Q 377.123 79.223 376.1 78.2 Q 375 77.1 375 75.6 Z M 289.8 11.2 A 4.52 4.52 0 0 1 289.804 11.017 Q 289.859 9.662 290.735 8.717 A 3.875 3.875 0 0 1 290.9 8.55 Q 291.914 7.582 293.268 7.506 A 4.159 4.159 0 0 1 293.5 7.5 A 4.773 4.773 0 0 1 293.633 7.502 Q 294.999 7.54 295.953 8.366 A 3.78 3.78 0 0 1 296.15 8.55 Q 297.2 9.6 297.2 11.2 Q 297.2 12.7 296.15 13.8 Q 295.1 14.9 293.5 14.9 A 3.983 3.983 0 0 1 293.293 14.895 Q 291.923 14.823 290.9 13.8 Q 289.8 12.7 289.8 11.2 Z" vector-effect="non-scaling-stroke"/></g></svg>